<svg width="1680" height="522" viewBox="0 0 1680 522" fill="none" xmlns="http://www.w3.org/2000/svg">
<g filter="url(#filter0_d_137_479)">
<rect x="30" y="30" width="1620" height="462" rx="20" fill="url(#paint0_linear_137_479)"/>
</g>
<mask id="mask0_137_479" style="mask-type:alpha" maskUnits="userSpaceOnUse" x="30" y="30" width="1620" height="462">
<rect x="30" y="30" width="1620" height="462" rx="20.7544" fill="white"/>
</mask>
<g mask="url(#mask0_137_479)">
<path d="M160.738 525.985L160.336 521.083L177.677 512.96L224.33 441.122L168.06 374.619L151.557 368.904L151.155 364.002L209.595 360.694L209.997 365.596L191.161 373.557L191.262 374.783L236.279 427.395L273.253 369.895L273.173 368.915L254.194 363.094L253.792 358.192L302.901 355.412L303.303 360.314L288.847 367.535L243.918 436.32L303.11 505.367L321.903 511.937L322.305 516.839L262.638 520.217L262.236 515.314L279.863 507.668L279.783 506.687L231.703 449.816L192.841 511.363L192.921 512.343L213.127 518.094L213.529 522.997L160.738 525.985ZM418.145 513.876C406.686 514.525 395.878 513.085 385.722 509.556C375.715 505.854 366.809 500.53 359.004 493.584C351.348 486.466 345.059 477.957 340.136 468.057C335.377 458.148 332.501 447.148 331.51 435.055C330.518 422.963 331.571 411.74 334.669 401.386C337.931 391.023 342.779 381.966 349.215 374.214C355.802 366.29 363.756 360.011 373.079 355.379C382.553 350.575 393.019 347.848 404.477 347.2C415.936 346.551 426.668 348.078 436.675 351.779C446.832 355.309 455.819 360.628 463.638 367.737C471.444 374.683 477.726 383.11 482.486 393.019C487.409 402.919 490.366 413.915 491.358 426.007C492.349 438.099 491.214 449.327 487.953 459.69C484.855 470.043 480.013 479.183 473.426 487.107C466.827 494.868 458.79 501.151 449.317 505.956C439.994 510.588 429.603 513.228 418.145 513.876ZM422.457 503.29C433.261 502.678 442.534 499.445 450.276 493.589C458.019 487.733 463.78 479.773 467.56 469.709C471.339 459.645 472.686 447.995 471.601 434.759C470.261 418.418 466.23 404.364 459.51 392.596C452.789 380.828 444.325 371.867 434.117 365.714C423.91 359.561 412.913 356.818 401.127 357.485C390.323 358.097 380.968 361.335 373.062 367.2C365.142 372.902 359.211 380.79 355.268 390.863C351.488 400.927 350.141 412.577 351.226 425.813C352.566 442.154 356.603 456.29 363.338 468.221C370.059 479.989 378.523 488.95 388.73 495.103C399.101 501.246 410.343 503.975 422.457 503.29ZM594.984 501.404L531.143 505.017L530.741 500.115L549.535 491.664L538.28 354.4L518.279 348.145L517.877 343.243L634.756 336.627L638.494 382.218L634.074 382.468L617.284 349.19L557.372 352.581L561.995 408.957L587.286 407.525C607.911 406.358 624.37 409.53 636.663 417.043C649.105 424.383 655.876 434.752 656.975 448.152C657.752 457.63 655.829 466.275 651.208 474.088C646.572 481.738 639.443 488.052 629.819 493.029C620.346 497.834 608.734 500.625 594.984 501.404ZM586.757 419.129L562.939 420.477L568.748 491.315L594.039 489.883C609.426 489.012 620.535 485.1 627.365 478.147C634.346 471.021 637.414 462.31 636.57 452.016C635.552 439.597 631.05 430.822 623.064 425.693C615.065 420.4 602.963 418.212 586.757 419.129ZM753.244 492.445L689.402 496.059L689 491.157L707.795 482.705L696.54 345.442L676.539 339.187L676.137 334.284L793.015 327.668L796.754 373.259L792.334 373.509L775.544 340.231L715.632 343.622L720.255 399.998L745.546 398.567C766.171 397.399 782.63 400.572 794.922 408.084C807.365 415.424 814.136 425.794 815.234 439.193C816.012 448.671 814.089 457.317 809.467 465.13C804.832 472.78 797.703 479.093 788.079 484.071C778.606 488.875 766.994 491.667 753.244 492.445ZM745.017 410.17L721.199 411.519L727.008 482.356L752.299 480.925C767.686 480.054 778.795 476.142 785.625 469.188C792.606 462.062 795.674 453.352 794.83 443.057C793.812 430.638 789.31 421.864 781.324 416.734C773.325 411.441 761.223 409.253 745.017 410.17ZM847.662 487.1L847.26 482.198L866.055 473.747L854.8 336.483L834.799 330.228L834.397 325.326L893.082 322.004L893.484 326.906L873.952 335.399L883.158 447.661L964.44 340.866L963.575 330.326L942.838 324.112L942.436 319.21L1001.12 315.888L1001.52 320.79L982.728 329.242L993.983 466.505L1013.98 472.76L1014.39 477.663L955.701 480.985L955.299 476.082L974.831 467.589L965.726 356.553L884.444 463.348L885.208 472.662L905.945 478.876L906.347 483.778L847.662 487.1ZM1099.73 472.831L1099.33 467.929L1113.56 460.967L1163.72 305.453L1172.31 304.966L1247.12 453.161L1263.11 458.658L1263.51 463.56L1206.3 466.799L1205.9 461.897L1226.49 454.328L1203.42 407.616L1142.77 411.049L1127.8 460.161L1149.42 465.094L1149.83 469.996L1099.73 472.831ZM1146.49 399.264L1197.81 396.359L1166.76 333.599L1146.49 399.264ZM1287.67 462.193L1287.27 457.291L1306.31 448.825L1295.06 311.562L1274.81 305.32L1274.41 300.418L1332.11 297.152C1351.43 296.058 1367.18 298.696 1379.38 305.065C1391.74 311.424 1398.55 322.202 1399.79 337.399C1400.53 346.387 1398.24 354.561 1392.92 361.921C1387.59 369.118 1379.86 375.055 1369.72 379.733C1359.74 384.402 1348.12 387.112 1334.86 387.863L1320.62 388.669L1325.46 447.741L1348.17 453.844L1348.57 458.746L1287.67 462.193ZM1314.15 309.742L1319.68 377.148L1339.56 376.023C1352.5 375.291 1362.56 371.684 1369.76 365.202C1376.94 358.557 1380.13 350.332 1379.33 340.528C1378.34 328.436 1373.69 319.916 1365.39 314.968C1357.26 310.011 1346.23 307.926 1332.32 308.714L1314.15 309.742ZM1470.43 451.848L1470.02 446.946L1493.97 438.202L1482.66 300.204L1439.44 302.65L1428.4 339.474L1423.98 339.724L1420.08 292.172L1562.5 284.11L1566.4 331.662L1561.98 331.912L1545.03 296.673L1501.81 299.119L1513.13 437.118L1538.28 443.082L1538.69 447.984L1470.43 451.848Z" fill="#5E5C5A" fill-opacity="0.03"/>
<path d="M-391.316 348.298L-392.418 343.504L-376.286 333.738L-340.039 258.175L-405.674 198.289L-422.951 194.325L-424.053 189.531L-366.244 180.353L-365.142 185.147L-382.787 194.904L-382.511 196.103L-330.087 243.428L-301.44 182.983L-301.661 182.024L-321.421 178.205L-322.523 173.412L-273.945 165.699L-272.842 170.493L-286.226 179.077L-321.191 251.456L-252.277 313.553L-232.594 318.13L-231.492 322.923L-290.515 332.294L-291.617 327.5L-275.132 318.175L-275.352 317.217L-331.441 266.001L-361.391 330.628L-361.171 331.587L-340.196 335.213L-339.094 340.007L-391.316 348.298ZM-136.334 310.3C-147.669 312.099 -158.653 311.773 -169.288 309.321C-179.797 306.683 -189.441 302.335 -198.219 296.276C-206.873 290.031 -214.363 282.277 -220.689 273.013C-226.854 263.723 -231.296 253.166 -234.015 241.342C-236.735 229.518 -237.291 218.344 -235.683 207.82C-233.913 197.27 -230.373 187.848 -225.064 179.552C-219.63 171.071 -212.595 164.074 -203.96 158.563C-195.199 152.866 -185.152 149.118 -173.817 147.318C-162.482 145.518 -151.559 145.937 -141.05 148.575C-130.416 151.027 -120.691 155.363 -111.876 161.582C-103.097 167.641 -95.6254 175.315 -89.4607 184.605C-83.1341 193.869 -78.6112 204.413 -75.8918 216.237C-73.1724 228.061 -72.6977 239.248 -74.4675 249.798C-76.0754 260.321 -79.5966 269.824 -85.0311 278.305C-90.5023 286.627 -97.618 293.636 -106.378 299.333C-115.013 304.844 -124.999 308.5 -136.334 310.3ZM-133.548 299.423C-122.861 297.726 -114.075 293.599 -107.191 287.04C-100.308 280.482 -95.7011 272.049 -93.372 261.742C-91.0428 251.435 -91.3666 239.811 -94.3432 226.868C-98.018 210.889 -104.049 197.438 -112.436 186.514C-120.823 175.589 -130.546 167.61 -141.607 162.575C-152.667 157.541 -164.027 155.949 -175.686 157.8C-186.373 159.497 -195.24 163.638 -202.285 170.222C-209.368 176.646 -214.155 185.024 -216.646 195.357C-218.975 205.664 -218.651 217.289 -215.674 230.232C-212 246.21 -205.95 259.742 -197.527 270.826C-189.14 281.75 -179.416 289.729 -168.356 294.764C-157.133 299.773 -145.531 301.326 -133.548 299.423ZM38.2453 280.098L-24.9071 290.125L-26.0095 285.331L-8.47459 275.094L-39.343 140.874L-60.1852 136.73L-61.2877 131.936L54.3296 113.58L64.5824 158.161L60.2103 158.855L38.7034 127.738L-20.5627 137.147L-7.88457 192.273L17.1335 188.301C37.5365 185.062 54.4052 186.524 67.7396 192.688C81.1992 198.667 89.4356 208.207 92.4489 221.309C94.5803 230.577 93.9004 239.297 90.4091 247.47C86.881 255.483 80.6742 262.431 71.7887 268.313C63.0285 274.01 51.8473 277.939 38.2453 280.098ZM18.2668 199.797L-5.29382 203.538L10.6365 272.805L35.6545 268.833C50.8758 266.417 61.3949 261.434 67.2118 253.886C73.1539 246.152 74.9674 237.252 72.6522 227.185C69.8594 215.042 64.1139 206.845 55.4157 202.594C46.6808 198.185 34.2978 197.252 18.2668 199.797ZM194.798 255.243L131.645 265.269L130.543 260.476L148.078 250.239L117.209 116.019L96.3672 111.875L95.2648 107.081L210.882 88.7253L221.135 133.306L216.763 134L195.256 102.882L135.99 112.292L148.668 167.418L173.686 163.446C194.089 160.207 210.958 161.669 224.292 167.833C237.752 173.811 245.988 183.352 249.001 196.454C251.133 205.722 250.453 214.442 246.962 222.615C243.433 230.628 237.227 237.576 228.341 243.458C219.581 249.155 208.4 253.083 194.798 255.243ZM174.819 174.942L151.259 178.683L167.189 247.95L192.207 243.978C207.428 241.561 217.947 236.579 223.764 229.031C229.706 221.297 231.52 212.397 229.205 202.33C226.412 190.186 220.666 181.989 211.968 177.739C203.233 173.329 190.85 172.397 174.819 174.942ZM288.198 240.414L287.095 235.621L304.63 225.384L273.762 91.1636L252.92 87.0197L251.817 82.2262L309.869 73.0096L310.971 77.8031L292.708 88.1557L317.954 197.929L383.734 84.3863L381.364 74.0801L359.793 70.0519L358.69 65.2584L416.742 56.0418L417.844 60.8353L400.31 71.0722L431.178 205.292L452.02 209.436L453.123 214.23L395.071 223.446L393.969 218.653L412.232 208.3L387.262 99.7258L321.481 213.268L323.576 222.376L345.147 226.404L346.249 231.198L288.198 240.414ZM537.551 200.826L536.448 196.032L549.644 187.726L577.406 29.2917L585.907 27.942L681.723 166.508L698.458 170.31L699.561 175.104L642.967 184.089L641.864 179.296L661.32 169.747L631.625 126.018L571.631 135.543L563.732 185.49L585.999 188.165L587.101 192.959L537.551 200.826ZM573.655 123.545L624.42 115.486L584.474 56.7391L573.655 123.545ZM723.461 171.309L722.359 166.516L740.137 156.24L709.268 22.0202L688.183 17.9149L687.081 13.1213L744.161 4.05894C763.268 1.02531 779.361 2.03122 792.438 7.07669C805.677 12.0965 814.005 22.0364 817.423 36.8965C819.444 45.6847 818.33 53.977 814.08 61.7733C809.794 69.4098 802.929 76.0481 793.484 81.6881C784.201 87.3024 773.002 91.1507 759.886 93.2331L745.798 95.4698L759.082 153.232L782.596 156.952L783.699 161.746L723.461 171.309ZM728.048 18.2932L743.207 84.2049L762.881 81.0813C775.674 79.0503 785.196 74.4746 791.446 67.3542C797.661 60.074 799.665 51.6404 797.461 42.0532C794.741 30.229 788.889 22.2975 779.904 18.2586C771.08 14.194 759.787 13.2543 746.023 15.4395L728.048 18.2932ZM904.242 142.607L903.14 137.814L925.776 126.767L894.742 -8.17196L851.992 -1.38485L846.25 36.046L841.878 36.7402L831.185 -9.75751L972.063 -32.1241L982.757 14.3736L978.385 15.0677L956.437 -17.967L913.687 -11.1799L944.721 123.759L970.664 127.093L971.767 131.887L904.242 142.607Z" fill="#5E5C5A" fill-opacity="0.03"/>
<path fill-rule="evenodd" clip-rule="evenodd" d="M1284.52 426.03C1329.58 377.085 1426.18 400.681 1491.27 371.136C1561.49 339.258 1594.36 241.686 1673.85 249.291C1752.03 256.77 1757.54 355.353 1812.81 401.897C1868.79 449.037 1976.76 457.026 1996.68 521.145C2016.49 584.858 1953.64 646.141 1904.82 697.952C1862.73 742.619 1804.07 771.484 1740.76 792.728C1681.63 812.572 1619.82 814.603 1556.05 814.989C1476.92 815.469 1384.98 838.791 1325.7 795.244C1266.35 751.647 1280.95 673.074 1273.65 607.536C1266.75 545.704 1239.12 475.353 1284.52 426.03Z" fill="url(#paint1_linear_137_479)"/>
<path fill-rule="evenodd" clip-rule="evenodd" d="M673.546 -160.698C700.364 -189.832 757.868 -175.787 796.607 -193.373C838.406 -212.347 857.97 -270.426 905.288 -265.899C951.824 -261.447 955.099 -202.767 987.999 -175.063C1021.32 -147.004 1085.59 -142.248 1097.45 -104.082C1109.24 -66.1581 1071.83 -29.6808 1042.77 1.15922C1017.71 27.7462 982.798 44.9277 945.115 57.5728C909.915 69.3847 873.127 70.5932 835.165 70.8233C788.068 71.1087 733.34 84.9909 698.055 59.0702C662.729 33.1197 671.423 -13.649 667.072 -52.6596C662.968 -89.4639 646.519 -131.339 673.546 -160.698Z" fill="url(#paint2_linear_137_479)"/>
</g>
<defs>
<filter id="filter0_d_137_479" x="0" y="0" width="1680" height="522" filterUnits="userSpaceOnUse" color-interpolation-filters="sRGB">
<feFlood flood-opacity="0" result="BackgroundImageFix"/>
<feColorMatrix in="SourceAlpha" type="matrix" values="0 0 0 0 0 0 0 0 0 0 0 0 0 0 0 0 0 0 127 0" result="hardAlpha"/>
<feOffset/>
<feGaussianBlur stdDeviation="15"/>
<feColorMatrix type="matrix" values="0 0 0 0 0 0 0 0 0 0 0 0 0 0 0 0 0 0 0.05 0"/>
<feBlend mode="normal" in2="BackgroundImageFix" result="effect1_dropShadow_137_479"/>
<feBlend mode="normal" in="SourceGraphic" in2="effect1_dropShadow_137_479" result="shape"/>
</filter>
<linearGradient id="paint0_linear_137_479" x1="163.596" y1="-75" x2="1236.73" y2="682.541" gradientUnits="userSpaceOnUse">
<stop stop-color="#DDDDBF"/>
<stop offset="1" stop-color="#ECECD5"/>
</linearGradient>
<linearGradient id="paint1_linear_137_479" x1="1040.4" y1="481.5" x2="1771.81" y2="420.789" gradientUnits="userSpaceOnUse">
<stop stop-color="#B8B89C"/>
<stop offset="1" stop-color="#DDDDBE"/>
</linearGradient>
<linearGradient id="paint2_linear_137_479" x1="618.142" y1="-182.739" x2="900.819" y2="-18.5912" gradientUnits="userSpaceOnUse">
<stop stop-color="#C0C0A4"/>
<stop offset="1" stop-color="#C1C1A5"/>
</linearGradient>
</defs>
</svg>
